<?xml version="1.0" encoding="UTF-8" standalone="no"?>
<svg
   id="レイヤー_1"
   data-name="レイヤー 1"
   viewBox="0 0 1024 1024"
   version="1.1"
   sodipodi:docname="favicon.svg"
   xml:space="preserve"
   inkscape:version="1.4.2 (ebf0e940d0, 2025-05-08)"
   width="1024"
   height="1024"
   inkscape:export-filename="favicon.png"
   inkscape:export-xdpi="63.246807"
   inkscape:export-ydpi="63.246807"
   xmlns:inkscape="http://www.inkscape.org/namespaces/inkscape"
   xmlns:sodipodi="http://sodipodi.sourceforge.net/DTD/sodipodi-0.dtd"
   xmlns="http://www.w3.org/2000/svg"
   xmlns:svg="http://www.w3.org/2000/svg"
   xmlns:rdf="http://www.w3.org/1999/02/22-rdf-syntax-ns#"
   xmlns:cc="http://creativecommons.org/ns#"
   xmlns:dc="http://purl.org/dc/elements/1.1/"><sodipodi:namedview
     id="namedview10"
     pagecolor="#ffffff"
     bordercolor="#666666"
     borderopacity="1.0"
     inkscape:showpageshadow="2"
     inkscape:pageopacity="0.0"
     inkscape:pagecheckerboard="true"
     inkscape:deskcolor="#d1d1d1"
     showgrid="false"
     inkscape:zoom="0.70710681"
     inkscape:cx="673.87273"
     inkscape:cy="533.15849"
     inkscape:current-layer="レイヤー_1"
     inkscape:window-width="1874"
     inkscape:window-height="966"
     inkscape:window-x="0"
     inkscape:window-y="0"
     inkscape:window-maximized="1" /><defs
     id="defs1"><style
       id="style1">.cls-1{fill:#fff;}.cls-2{fill:#2b2727;}.cls-3{fill:#ef7b51;}</style></defs><title
     id="title1">erlenmeyer_flask</title><metadata
     id="metadata10"><rdf:RDF><cc:Work
         rdf:about=""><dc:title>erlenmeyer_flask</dc:title></cc:Work></rdf:RDF></metadata><g
     id="g1"
     transform="matrix(21.96587,0,0,21.96587,0.50000142,0.50000142)"><circle
       style="opacity:1;fill:#379a53;fill-opacity:1;stroke:none;stroke-width:1.99937;stroke-linecap:square;stroke-dashoffset:10.0157;stroke-opacity:1"
       id="path1"
       cx="23.286125"
       cy="23.286125"
       r="23.286125" /><path
       style="fill:#2b2727;fill-opacity:1;stroke-width:0.145296"
       d="m 25.354355,11.118221 c -0.205309,0.295219 -0.58995,0.693497 -0.85467,0.88509 -0.420857,0.304658 -6.399693,2.137406 -7.726645,2.368555 -1.871423,0.325987 -3.730391,-1.075728 -4.019364,-3.030837 -0.159952,-1.082153 0.323296,-2.3613951 1.17761,-3.1173713 0.540623,-0.4784061 1.07812,-0.6852074 4.029387,-1.5503345 1.873034,-0.5490527 3.691623,-1.0412501 4.041314,-1.0937776 1.241783,-0.1865256 2.680916,0.4937938 3.392733,1.60382 0.771599,1.2033072 0.755313,2.7910434 -0.04037,3.9348544 z"
       id="path7" /><path
       style="fill:#2b2727;fill-opacity:1;stroke-width:0.145296"
       d="m 30.933445,17.610919 c 0.490664,-2.036788 2.696309,-3.180739 4.716773,-2.446338 0.443682,0.161275 0.985899,0.486155 1.204947,0.721977 0.661421,0.712079 4.383062,5.510547 4.647688,5.992458 0.135712,0.247085 0.28719,0.828657 0.336707,1.292372 0.312237,2.923998 -2.855197,4.893591 -5.378478,3.344478 C 35.89353,26.167423 31.395274,20.530827 31.095477,19.792394 30.837556,19.156975 30.772302,18.27974 30.93355,17.610908 Z"
       id="path6"
       inkscape:transform-center-x="-3.7910314"
       inkscape:transform-center-y="0.41190351" /><path
       style="fill:#2b2727;fill-opacity:1;stroke-width:0.145296"
       d="m 25.105288,27.363061 c -0.206324,-0.06248 -1.742822,-0.846398 -3.414454,-1.741912 -2.36422,-1.266516 -3.189048,-1.785493 -3.713283,-2.336345 -0.770955,-0.810047 -1.142269,-1.729991 -1.142269,-2.82994 0,-2.614053 2.464348,-4.669984 4.97338,-4.149113 0.934011,0.193923 6.787178,3.298057 7.498764,3.976873 2.711281,2.58643 0.852337,7.255178 -2.86946,7.20664 -0.526655,-0.0075 -1.126351,-0.06363 -1.332678,-0.126116 z"
       id="path5" /><path
       style="fill:#2b2727;fill-opacity:1;stroke-width:0.145296"
       d="M 5.4977047,32.080459 C 3.9447153,31.585009 2.9372179,30.077324 3.0682368,28.444881 3.1071848,27.95889 3.2481291,27.35039 3.3815181,27.092647 c 0.1332695,-0.257716 1.4234791,-1.706939 2.867099,-3.220428 2.9174914,-3.058708 3.3217724,-3.345565 4.7117299,-3.343283 2.482647,0.0038 4.084659,2.209332 3.398856,4.678668 -0.160733,0.578962 -0.870845,1.406827 -3.934681,4.587481 -1.0502295,1.090294 -2.0724455,2.019214 -2.3493075,2.134895 -0.7729258,0.322939 -1.8413397,0.3853 -2.5774938,0.150479 z"
       id="path3" /><path
       style="fill:#2b2727;fill-opacity:1;stroke-width:0.145296"
       d="m 31.364923,40.711529 c -1.309002,-0.593448 -1.459871,-0.846163 -3.176747,-5.321038 -0.99328,-2.588929 -1.182143,-3.216906 -1.182143,-3.930814 0,-2.934846 3.276991,-4.532872 5.675336,-2.767593 0.672338,0.494869 1.005675,1.159103 2.392194,4.766823 1.350601,3.514288 1.503755,4.299286 1.050051,5.382187 -0.757443,1.807878 -2.974502,2.679306 -4.758691,1.870435 z"
       id="path10" /></g></svg>
